======================= MICHAEL JACKSON BEAT IT ==============================

Format                           : AVI
Format/Info                      : Audio Video Interleave
File size                        : 59.8 MiB
Duration                         : 5mn 1s
Overall bit rate                 : 1 667 Kbps
Writing application              : FairUse Wizard - http://fairusewizard.com
Writing library                  : VirtualDub build 24463/release

Video
ID                               : 0
Format                           : AVC
Format/Info                      : Advanced Video Codec
Format profile                   : Main@L5.1
Format settings, CABAC           : Yes
Format settings, ReFrames        : 2 frames
Codec ID                         : H264
Duration                         : 5mn 1s
Bit rate                         : 1 212 Kbps
Width                            : 624 pixels
Height                           : 464 pixels
Display aspect ratio             : 4:3
Frame rate                       : 23.976 fps
Color space                      : YUV
Chroma subsampling               : 4:2:0
Bit depth                        : 8 bits
Scan type                        : Progressive
Bits/(Pixel*Frame)               : 0.175
Stream size                      : 43.6 MiB (73%)
Writing library                  : x264 core 53

Audio
ID                               : 1
Format                           : AC-3
Format/Info                      : Audio Coding 3
Mode extension                   : CM (complete main)
Codec ID                         : 2000
Duration                         : 5mn 1s
Bit rate mode                    : Constant
Bit rate                         : 448 Kbps
Channel(s)                       : 6 channels
Channel positions                : Front: L C R, Side: L R, LFE
Sampling rate                    : 48.0 KHz
Video delay                      : 430ms
Stream size                      : 16.1 MiB (27%)
Alignment                        : Split accross interleaves
Interleave, duration             : 2641 ms (63.32 video frames)
Interleave, preload duration     : 128 ms

=============================================================================
 
                            http://bayimg.com/jAhbCAAdk

=============================================================================

========================== HAUNTING SUMMER ==================================
                        